<svg width="217" height="151" viewBox="0 0 217 151" fill="none" xmlns="http://www.w3.org/2000/svg">
<mask id="path-1-outside-1_54975_29356" maskUnits="userSpaceOnUse" x="-5" y="-5" width="227" height="161" fill="black">
<rect fill="white" x="-5" y="-5" width="227" height="161"/>
<path d="M36.072 69H0.168V58.44L8.328 55.176V14.184L0.168 11.016V0.455996H36.072V11.016L28.008 14.184V55.176L36.072 58.44V69ZM61.7453 1.608C61.2333 3.912 60.5293 6.664 59.6333 9.86399C58.8013 13.064 57.9053 16.296 56.9453 19.56C55.9853 22.76 54.9933 25.544 53.9693 27.912H40.2413C40.6893 25.736 41.1053 23.464 41.4893 21.096C41.9373 18.664 42.3533 16.264 42.7373 13.896C43.1213 11.464 43.4733 9.128 43.7933 6.888C44.1133 4.584 44.4013 2.472 44.6573 0.551994H61.0733L61.7453 1.608ZM126.798 14.952C132.558 14.952 136.974 16.488 140.046 19.56C143.182 22.632 144.75 27.592 144.75 34.44V69H125.454V40.104C125.454 36.072 124.974 33.288 124.014 31.752C123.118 30.152 121.838 29.352 120.174 29.352C117.806 29.352 116.206 30.664 115.374 33.288C114.542 35.848 114.126 39.496 114.126 44.232V69H94.734V40.104C94.734 37.544 94.542 35.496 94.158 33.96C93.838 32.36 93.294 31.208 92.526 30.504C91.822 29.736 90.926 29.352 89.838 29.352C88.174 29.352 86.862 29.992 85.902 31.272C85.006 32.552 84.398 34.408 84.078 36.84C83.758 39.272 83.598 42.248 83.598 45.768V69H64.206V15.912H78.702L81.678 22.44H81.966C82.798 20.968 83.854 19.688 85.134 18.6C86.478 17.448 88.142 16.552 90.126 15.912C92.11 15.272 94.51 14.952 97.326 14.952C100.974 14.952 103.95 15.624 106.254 16.968C108.622 18.248 110.574 20.04 112.11 22.344H112.302C113.966 19.976 115.982 18.152 118.35 16.872C120.718 15.592 123.534 14.952 126.798 14.952Z"/>
<path d="M59.976 150H40.2V122.064H23.016V150H3.336V81.456H23.016V106.896H40.2V81.456H59.976V150ZM94.4093 95.952C99.4013 95.952 103.721 96.848 107.369 98.64C111.017 100.432 113.801 103.12 115.721 106.704C117.705 110.288 118.697 114.8 118.697 120.24V128.4H88.5533C88.6813 131.152 89.5453 133.424 91.1453 135.216C92.8093 137.008 95.3053 137.904 98.6333 137.904C101.769 137.904 104.617 137.584 107.177 136.944C109.801 136.304 112.489 135.28 115.241 133.872V147.024C112.873 148.368 110.185 149.36 107.177 150C104.233 150.64 100.425 150.96 95.7533 150.96C90.6973 150.96 86.1533 150.032 82.1213 148.176C78.0893 146.256 74.8893 143.28 72.5213 139.248C70.1533 135.216 68.9693 130.064 68.9693 123.792C68.9693 117.392 70.0253 112.144 72.1373 108.048C74.3133 103.952 77.2893 100.912 81.0653 98.928C84.9053 96.944 89.3533 95.952 94.4093 95.952ZM95.2733 108.432C93.5453 108.432 92.1053 109.104 90.9533 110.448C89.8013 111.792 89.1293 113.936 88.9373 116.88H101.417C101.417 115.28 101.161 113.872 100.649 112.656C100.137 111.376 99.4333 110.352 98.5373 109.584C97.6413 108.816 96.5533 108.432 95.2733 108.432ZM158.415 95.952C159.503 95.952 160.591 96.016 161.679 96.144C162.831 96.272 163.631 96.4 164.079 96.528L162.255 113.808C161.615 113.68 160.815 113.552 159.855 113.424C158.959 113.296 157.455 113.232 155.343 113.232C154.639 113.232 153.775 113.36 152.751 113.616C151.727 113.808 150.703 114.256 149.679 114.96C148.719 115.664 147.887 116.72 147.183 118.128C146.543 119.536 146.223 121.456 146.223 123.888V150H126.831V96.912H141.135L144.207 105.36H145.167C146.063 103.632 147.215 102.064 148.623 100.656C150.031 99.184 151.567 98.032 153.231 97.2C154.959 96.368 156.687 95.952 158.415 95.952ZM216.463 123.312C216.463 127.728 215.887 131.664 214.735 135.12C213.583 138.576 211.887 141.488 209.647 143.856C207.471 146.16 204.783 147.92 201.583 149.136C198.447 150.352 194.895 150.96 190.927 150.96C187.215 150.96 183.791 150.352 180.655 149.136C177.519 147.92 174.831 146.16 172.591 143.856C170.351 141.488 168.591 138.576 167.311 135.12C166.095 131.664 165.487 127.728 165.487 123.312C165.487 117.424 166.511 112.464 168.559 108.432C170.607 104.336 173.551 101.232 177.391 99.12C181.295 97.008 185.903 95.952 191.215 95.952C196.079 95.952 200.399 97.008 204.175 99.12C208.015 101.232 211.023 104.336 213.199 108.432C215.375 112.464 216.463 117.424 216.463 123.312ZM185.167 123.312C185.167 126.32 185.359 128.88 185.743 130.992C186.127 133.104 186.767 134.704 187.663 135.792C188.559 136.816 189.711 137.328 191.119 137.328C192.591 137.328 193.711 136.816 194.479 135.792C195.311 134.704 195.887 133.104 196.207 130.992C196.591 128.88 196.783 126.32 196.783 123.312C196.783 120.304 196.591 117.776 196.207 115.728C195.887 113.68 195.279 112.144 194.383 111.12C193.551 110.096 192.431 109.584 191.023 109.584C188.911 109.584 187.407 110.736 186.511 113.04C185.615 115.344 185.167 118.768 185.167 123.312Z"/>
</mask>
<path d="M36.072 69H0.168V58.44L8.328 55.176V14.184L0.168 11.016V0.455996H36.072V11.016L28.008 14.184V55.176L36.072 58.44V69ZM61.7453 1.608C61.2333 3.912 60.5293 6.664 59.6333 9.86399C58.8013 13.064 57.9053 16.296 56.9453 19.56C55.9853 22.76 54.9933 25.544 53.9693 27.912H40.2413C40.6893 25.736 41.1053 23.464 41.4893 21.096C41.9373 18.664 42.3533 16.264 42.7373 13.896C43.1213 11.464 43.4733 9.128 43.7933 6.888C44.1133 4.584 44.4013 2.472 44.6573 0.551994H61.0733L61.7453 1.608ZM126.798 14.952C132.558 14.952 136.974 16.488 140.046 19.56C143.182 22.632 144.75 27.592 144.75 34.44V69H125.454V40.104C125.454 36.072 124.974 33.288 124.014 31.752C123.118 30.152 121.838 29.352 120.174 29.352C117.806 29.352 116.206 30.664 115.374 33.288C114.542 35.848 114.126 39.496 114.126 44.232V69H94.734V40.104C94.734 37.544 94.542 35.496 94.158 33.96C93.838 32.36 93.294 31.208 92.526 30.504C91.822 29.736 90.926 29.352 89.838 29.352C88.174 29.352 86.862 29.992 85.902 31.272C85.006 32.552 84.398 34.408 84.078 36.84C83.758 39.272 83.598 42.248 83.598 45.768V69H64.206V15.912H78.702L81.678 22.44H81.966C82.798 20.968 83.854 19.688 85.134 18.6C86.478 17.448 88.142 16.552 90.126 15.912C92.11 15.272 94.51 14.952 97.326 14.952C100.974 14.952 103.95 15.624 106.254 16.968C108.622 18.248 110.574 20.04 112.11 22.344H112.302C113.966 19.976 115.982 18.152 118.35 16.872C120.718 15.592 123.534 14.952 126.798 14.952Z" fill="#13413E"/>
<path d="M59.976 150H40.2V122.064H23.016V150H3.336V81.456H23.016V106.896H40.2V81.456H59.976V150ZM94.4093 95.952C99.4013 95.952 103.721 96.848 107.369 98.64C111.017 100.432 113.801 103.12 115.721 106.704C117.705 110.288 118.697 114.8 118.697 120.24V128.4H88.5533C88.6813 131.152 89.5453 133.424 91.1453 135.216C92.8093 137.008 95.3053 137.904 98.6333 137.904C101.769 137.904 104.617 137.584 107.177 136.944C109.801 136.304 112.489 135.28 115.241 133.872V147.024C112.873 148.368 110.185 149.36 107.177 150C104.233 150.64 100.425 150.96 95.7533 150.96C90.6973 150.96 86.1533 150.032 82.1213 148.176C78.0893 146.256 74.8893 143.28 72.5213 139.248C70.1533 135.216 68.9693 130.064 68.9693 123.792C68.9693 117.392 70.0253 112.144 72.1373 108.048C74.3133 103.952 77.2893 100.912 81.0653 98.928C84.9053 96.944 89.3533 95.952 94.4093 95.952ZM95.2733 108.432C93.5453 108.432 92.1053 109.104 90.9533 110.448C89.8013 111.792 89.1293 113.936 88.9373 116.88H101.417C101.417 115.28 101.161 113.872 100.649 112.656C100.137 111.376 99.4333 110.352 98.5373 109.584C97.6413 108.816 96.5533 108.432 95.2733 108.432ZM158.415 95.952C159.503 95.952 160.591 96.016 161.679 96.144C162.831 96.272 163.631 96.4 164.079 96.528L162.255 113.808C161.615 113.68 160.815 113.552 159.855 113.424C158.959 113.296 157.455 113.232 155.343 113.232C154.639 113.232 153.775 113.36 152.751 113.616C151.727 113.808 150.703 114.256 149.679 114.96C148.719 115.664 147.887 116.72 147.183 118.128C146.543 119.536 146.223 121.456 146.223 123.888V150H126.831V96.912H141.135L144.207 105.36H145.167C146.063 103.632 147.215 102.064 148.623 100.656C150.031 99.184 151.567 98.032 153.231 97.2C154.959 96.368 156.687 95.952 158.415 95.952ZM216.463 123.312C216.463 127.728 215.887 131.664 214.735 135.12C213.583 138.576 211.887 141.488 209.647 143.856C207.471 146.16 204.783 147.92 201.583 149.136C198.447 150.352 194.895 150.96 190.927 150.96C187.215 150.96 183.791 150.352 180.655 149.136C177.519 147.92 174.831 146.16 172.591 143.856C170.351 141.488 168.591 138.576 167.311 135.12C166.095 131.664 165.487 127.728 165.487 123.312C165.487 117.424 166.511 112.464 168.559 108.432C170.607 104.336 173.551 101.232 177.391 99.12C181.295 97.008 185.903 95.952 191.215 95.952C196.079 95.952 200.399 97.008 204.175 99.12C208.015 101.232 211.023 104.336 213.199 108.432C215.375 112.464 216.463 117.424 216.463 123.312ZM185.167 123.312C185.167 126.32 185.359 128.88 185.743 130.992C186.127 133.104 186.767 134.704 187.663 135.792C188.559 136.816 189.711 137.328 191.119 137.328C192.591 137.328 193.711 136.816 194.479 135.792C195.311 134.704 195.887 133.104 196.207 130.992C196.591 128.88 196.783 126.32 196.783 123.312C196.783 120.304 196.591 117.776 196.207 115.728C195.887 113.68 195.279 112.144 194.383 111.12C193.551 110.096 192.431 109.584 191.023 109.584C188.911 109.584 187.407 110.736 186.511 113.04C185.615 115.344 185.167 118.768 185.167 123.312Z" fill="#00B678"/>
<path d="M36.072 69V74H41.072V69H36.072ZM0.168 69H-4.832V74H0.168V69ZM0.168 58.44L-1.68895 53.7976L-4.832 55.0548V58.44H0.168ZM8.328 55.176L10.185 59.8184L13.328 58.5612V55.176H8.328ZM8.328 14.184H13.328V10.7616L10.1376 9.52294L8.328 14.184ZM0.168 11.016H-4.832V14.4384L-1.64158 15.677L0.168 11.016ZM0.168 0.455996V-4.544H-4.832V0.455996H0.168ZM36.072 0.455996H41.072V-4.544H36.072V0.455996ZM36.072 11.016L37.9003 15.6698L41.072 14.4237V11.016H36.072ZM28.008 14.184L26.1797 9.53024L23.008 10.7763V14.184H28.008ZM28.008 55.176H23.008V58.5462L26.132 59.8107L28.008 55.176ZM36.072 58.44H41.072V55.0698L37.948 53.8053L36.072 58.44ZM36.072 64H0.168V74H36.072V64ZM5.168 69V58.44H-4.832V69H5.168ZM2.02495 63.0824L10.185 59.8184L6.47105 50.5336L-1.68895 53.7976L2.02495 63.0824ZM13.328 55.176V14.184H3.328V55.176H13.328ZM10.1376 9.52294L1.97758 6.35495L-1.64158 15.677L6.51842 18.845L10.1376 9.52294ZM5.168 11.016V0.455996H-4.832V11.016H5.168ZM0.168 5.456H36.072V-4.544H0.168V5.456ZM31.072 0.455996V11.016H41.072V0.455996H31.072ZM34.2437 6.36224L26.1797 9.53024L29.8363 18.8378L37.9003 15.6698L34.2437 6.36224ZM23.008 14.184V55.176H33.008V14.184H23.008ZM26.132 59.8107L34.196 63.0747L37.948 53.8053L29.884 50.5413L26.132 59.8107ZM31.072 58.44V69H41.072V58.44H31.072ZM61.7453 1.608L66.6262 2.69265L67.0755 0.670905L65.9636 -1.07637L61.7453 1.608ZM59.6333 9.86399L54.8184 8.51584L54.8059 8.56072L54.7941 8.60582L59.6333 9.86399ZM56.9453 19.56L61.7344 20.9967L61.7383 20.9838L61.7421 20.9708L56.9453 19.56ZM53.9692 27.912V32.912H57.2546L58.5585 29.8966L53.9692 27.912ZM40.2413 27.912L35.344 26.9037L34.107 32.912H40.2413V27.912ZM41.4893 21.096L36.572 20.1902L36.5623 20.2428L36.5537 20.2956L41.4893 21.096ZM42.7373 13.896L47.6728 14.6964L47.6744 14.6861L47.6761 14.6758L42.7373 13.896ZM43.7933 6.888L48.743 7.59511L48.7444 7.58548L48.7457 7.57584L43.7933 6.888ZM44.6572 0.551994V-4.44801H40.2797L39.7011 -0.108823L44.6572 0.551994ZM61.0732 0.551994L65.2916 -2.13238L63.818 -4.44801H61.0732V0.551994ZM56.8643 0.523346C56.3781 2.7115 55.699 5.37099 54.8184 8.51584L64.4481 11.2121C65.3595 7.957 66.0884 5.1125 66.6262 2.69265L56.8643 0.523346ZM54.7941 8.60582C53.9758 11.7533 53.094 14.9344 52.1484 18.1492L61.7421 20.9708C62.7166 17.6576 63.6267 14.3747 64.4724 11.1222L54.7941 8.60582ZM52.1561 18.1233C51.2367 21.188 50.3081 23.7811 49.38 25.9274L58.5585 29.8966C59.6784 27.3069 60.7338 24.332 61.7344 20.9967L52.1561 18.1233ZM53.9692 22.912H40.2413V32.912H53.9692V22.912ZM45.1385 28.9203C45.6018 26.67 46.0304 24.3285 46.4248 21.8964L36.5537 20.2956C36.1801 22.5995 35.7767 24.802 35.344 26.9037L45.1385 28.9203ZM46.4065 22.0018C46.8608 19.5358 47.2829 17.1006 47.6728 14.6964L37.8017 13.0956C37.4236 15.4274 37.0137 17.7922 36.572 20.1902L46.4065 22.0018ZM47.6761 14.6758C48.0636 12.2217 48.4192 9.86137 48.743 7.59511L38.8435 6.18089C38.5273 8.39462 38.1789 10.7063 37.7984 13.1162L47.6761 14.6758ZM48.7457 7.57584C49.0667 5.26455 49.356 3.14339 49.6134 1.21281L39.7011 -0.108823C39.4465 1.8006 39.1598 3.90344 38.8408 6.20016L48.7457 7.57584ZM44.6572 5.55199H61.0732V-4.44801H44.6572V5.55199ZM56.8549 3.23637L57.5269 4.29237L65.9636 -1.07637L65.2916 -2.13238L56.8549 3.23637ZM140.046 19.56L136.51 23.0955L136.529 23.1138L136.547 23.1318L140.046 19.56ZM144.75 69V74H149.75V69H144.75ZM125.454 69H120.454V74H125.454V69ZM124.014 31.752L119.651 34.195L119.71 34.3L119.774 34.402L124.014 31.752ZM115.374 33.288L120.129 34.8334L120.135 34.8163L120.14 34.7992L115.374 33.288ZM114.126 69V74H119.126V69H114.126ZM94.734 69H89.734V74H94.734V69ZM94.158 33.96L89.2551 34.9406L89.2784 35.0573L89.3073 35.1727L94.158 33.96ZM92.526 30.504L88.8402 33.8826L88.9871 34.0429L89.1474 34.1898L92.526 30.504ZM85.902 31.272L81.902 28.272L81.8528 28.3376L81.8058 28.4047L85.902 31.272ZM84.078 36.84L89.0353 37.4923H89.0353L84.078 36.84ZM83.598 69V74H88.598V69H83.598ZM64.206 69H59.206V74H64.206V69ZM64.206 15.912V10.912H59.206V15.912H64.206ZM78.702 15.912L83.2515 13.8379L81.9177 10.912H78.702V15.912ZM81.678 22.44L77.1285 24.5141L78.4623 27.44H81.678V22.44ZM81.966 22.44V27.44H84.8833L86.3188 24.9003L81.966 22.44ZM85.134 18.6L88.3722 22.4097L88.3801 22.403L88.388 22.3963L85.134 18.6ZM90.126 15.912L88.591 11.1535V11.1535L90.126 15.912ZM106.254 16.968L103.735 21.2869L103.805 21.3279L103.876 21.3665L106.254 16.968ZM112.11 22.344L107.95 25.1175L109.434 27.344H112.11V22.344ZM112.302 22.344V27.344H114.9L116.393 25.2187L112.302 22.344ZM118.35 16.872L115.972 12.4735L115.972 12.4735L118.35 16.872ZM126.798 19.952C131.679 19.952 134.651 21.2361 136.51 23.0955L143.582 16.0245C139.297 11.7399 133.437 9.952 126.798 9.952V19.952ZM136.547 23.1318C138.302 24.8507 139.75 28.2018 139.75 34.44H149.75C149.75 26.9822 148.062 20.4133 143.545 15.9882L136.547 23.1318ZM139.75 34.44V69H149.75V34.44H139.75ZM144.75 64H125.454V74H144.75V64ZM130.454 69V40.104H120.454V69H130.454ZM130.454 40.104C130.454 36.0287 130.033 31.9492 128.254 29.102L119.774 34.402C119.773 34.3999 119.982 34.7699 120.167 35.8415C120.343 36.8624 120.454 38.2631 120.454 40.104H130.454ZM128.377 29.309C126.706 26.3264 123.862 24.352 120.174 24.352V34.352C120.187 34.352 120.135 34.3532 120.039 34.327C119.939 34.3 119.832 34.2543 119.732 34.192C119.521 34.0602 119.527 33.972 119.651 34.195L128.377 29.309ZM120.174 24.352C118.01 24.352 115.849 24.9762 114.028 26.4697C112.269 27.9118 111.222 29.8402 110.608 31.7768L120.14 34.7992C120.358 34.1118 120.527 34.0722 120.368 34.2023C120.289 34.2677 120.193 34.3184 120.112 34.3452C120.039 34.3693 120.045 34.352 120.174 34.352V24.352ZM110.619 31.7426C109.546 35.0428 109.126 39.3056 109.126 44.232H119.126C119.126 39.6864 119.538 36.6532 120.129 34.8334L110.619 31.7426ZM109.126 44.232V69H119.126V44.232H109.126ZM114.126 64H94.734V74H114.126V64ZM99.734 69V40.104H89.734V69H99.734ZM99.734 40.104C99.734 37.353 99.5336 34.8467 99.0087 32.7473L89.3073 35.1727C89.5505 36.1453 89.734 37.735 89.734 40.104H99.734ZM99.0609 32.9794C98.6425 30.8876 97.7856 28.5425 95.9046 26.8182L89.1474 34.1898C88.96 34.018 88.9336 33.9142 88.9888 34.031C89.0465 34.1532 89.1538 34.4341 89.2551 34.9406L99.0609 32.9794ZM96.2118 27.1254C94.5143 25.2736 92.2574 24.352 89.838 24.352V34.352C89.7836 34.352 89.5993 34.3398 89.3564 34.2357C89.1084 34.1294 88.934 33.9849 88.8402 33.8826L96.2118 27.1254ZM89.838 24.352C86.674 24.352 83.8497 25.6751 81.902 28.272L89.902 34.272C89.933 34.2306 89.9397 34.2304 89.9153 34.251C89.9037 34.2608 89.8872 34.2735 89.866 34.2873C89.8448 34.3012 89.8218 34.3143 89.7981 34.3258C89.748 34.3503 89.7132 34.359 89.7072 34.3602C89.7034 34.3611 89.7429 34.352 89.838 34.352V24.352ZM81.8058 28.4047C80.2593 30.614 79.4917 33.3684 79.1207 36.1877L89.0353 37.4923C89.3043 35.4476 89.7527 34.49 89.9982 34.1393L81.8058 28.4047ZM79.1207 36.1877C78.763 38.9066 78.598 42.115 78.598 45.768H88.598C88.598 42.381 88.753 39.6374 89.0353 37.4923L79.1207 36.1877ZM78.598 45.768V69H88.598V45.768H78.598ZM83.598 64H64.206V74H83.598V64ZM69.206 69V15.912H59.206V69H69.206ZM64.206 20.912H78.702V10.912H64.206V20.912ZM74.1525 17.986L77.1285 24.5141L86.2275 20.3659L83.2515 13.8379L74.1525 17.986ZM81.678 27.44H81.966V17.44H81.678V27.44ZM86.3188 24.9003C86.8634 23.9367 87.5432 23.1144 88.3722 22.4097L81.8958 14.7903C80.1648 16.2616 78.7326 17.9993 77.6132 19.9797L86.3188 24.9003ZM88.388 22.3963C89.1473 21.7454 90.1977 21.1426 91.661 20.6705L88.591 11.1535C86.0863 11.9614 83.8087 13.1506 81.88 14.8037L88.388 22.3963ZM91.661 20.6705C93.0096 20.2355 94.8609 19.952 97.326 19.952V9.952C94.1591 9.952 91.2104 10.3085 88.591 11.1535L91.661 20.6705ZM97.326 19.952C100.401 19.952 102.426 20.5236 103.735 21.2869L108.773 12.6491C105.474 10.7244 101.547 9.952 97.326 9.952V19.952ZM103.876 21.3665C105.505 22.247 106.853 23.4723 107.95 25.1175L116.27 19.5705C114.295 16.6077 111.739 14.2489 108.632 12.5695L103.876 21.3665ZM112.11 27.344H112.302V17.344H112.11V27.344ZM116.393 25.2187C117.646 23.4358 119.092 22.1549 120.728 21.2705L115.972 12.4735C112.872 14.1491 110.286 16.5162 108.211 19.4693L116.393 25.2187ZM120.728 21.2705C122.225 20.4609 124.189 19.952 126.798 19.952V9.952C122.879 9.952 119.211 10.7231 115.972 12.4735L120.728 21.2705ZM59.976 150V155H64.976V150H59.976ZM40.2 150H35.2V155H40.2V150ZM40.2 122.064H45.2V117.064H40.2V122.064ZM23.016 122.064V117.064H18.016V122.064H23.016ZM23.016 150V155H28.016V150H23.016ZM3.336 150H-1.664V155H3.336V150ZM3.336 81.456V76.456H-1.664V81.456H3.336ZM23.016 81.456H28.016V76.456H23.016V81.456ZM23.016 106.896H18.016V111.896H23.016V106.896ZM40.2 106.896V111.896H45.2V106.896H40.2ZM40.2 81.456V76.456H35.2V81.456H40.2ZM59.976 81.456H64.976V76.456H59.976V81.456ZM59.976 145H40.2V155H59.976V145ZM45.2 150V122.064H35.2V150H45.2ZM40.2 117.064H23.016V127.064H40.2V117.064ZM18.016 122.064V150H28.016V122.064H18.016ZM23.016 145H3.336V155H23.016V145ZM8.336 150V81.456H-1.664V150H8.336ZM3.336 86.456H23.016V76.456H3.336V86.456ZM18.016 81.456V106.896H28.016V81.456H18.016ZM23.016 111.896H40.2V101.896H23.016V111.896ZM45.2 106.896V81.456H35.2V106.896H45.2ZM40.2 86.456H59.976V76.456H40.2V86.456ZM54.976 81.456V150H64.976V81.456H54.976ZM115.721 106.704L111.314 109.065L111.33 109.095L111.347 109.126L115.721 106.704ZM118.697 128.4V133.4H123.697V128.4H118.697ZM88.5533 128.4V123.4H83.3153L83.5587 128.632L88.5533 128.4ZM91.1453 135.216L87.4156 138.546L87.4481 138.582L87.4813 138.618L91.1453 135.216ZM107.177 136.944L105.992 132.086L105.979 132.09L105.965 132.093L107.177 136.944ZM115.241 133.872H120.241V125.697L112.964 129.421L115.241 133.872ZM115.241 147.024L117.709 151.372L120.241 149.935V147.024H115.241ZM107.177 150L106.137 145.109L106.126 145.112L106.115 145.114L107.177 150ZM82.1213 148.176L79.9716 152.69L80.001 152.704L80.0305 152.718L82.1213 148.176ZM72.5212 139.248L68.2098 141.78L72.5212 139.248ZM72.1373 108.048L67.7217 105.702L67.7073 105.729L67.6932 105.757L72.1373 108.048ZM81.0653 98.928L78.7701 94.4859L78.7549 94.4938L78.7396 94.5018L81.0653 98.928ZM88.9372 116.88L83.9479 116.555L83.6005 121.88H88.9372V116.88ZM101.417 116.88V121.88H106.417V116.88H101.417ZM100.649 112.656L96.0069 114.513L96.0236 114.555L96.0411 114.596L100.649 112.656ZM98.5373 109.584L101.791 105.788L101.791 105.788L98.5373 109.584ZM94.4092 100.952C98.8081 100.952 102.341 101.741 105.165 103.128L109.574 94.1522C105.101 91.9551 99.9944 90.952 94.4092 90.952V100.952ZM105.165 103.128C107.874 104.459 109.887 106.403 111.314 109.065L120.129 104.343C117.715 99.8374 114.161 96.4055 109.574 94.1522L105.165 103.128ZM111.347 109.126C112.808 111.765 113.697 115.379 113.697 120.24H123.697C123.697 114.221 122.603 108.811 120.096 104.282L111.347 109.126ZM113.697 120.24V128.4H123.697V120.24H113.697ZM118.697 123.4H88.5533V133.4H118.697V123.4ZM83.5587 128.632C83.7318 132.354 84.9402 135.774 87.4156 138.546L94.8749 131.886C94.1503 131.074 93.6307 129.95 93.5479 128.168L83.5587 128.632ZM87.4813 138.618C90.3954 141.757 94.4356 142.904 98.6333 142.904V132.904C96.1749 132.904 95.2231 132.259 94.8092 131.814L87.4813 138.618ZM98.6333 142.904C102.104 142.904 105.367 142.55 108.39 141.795L105.965 132.093C103.867 132.618 101.435 132.904 98.6333 132.904V142.904ZM108.362 141.802C111.415 141.057 114.468 139.884 117.519 138.323L112.964 129.421C110.51 130.676 108.188 131.551 105.992 132.086L108.362 141.802ZM110.241 133.872V147.024H120.241V133.872H110.241ZM112.773 142.676C110.904 143.737 108.708 144.562 106.137 145.109L108.218 154.891C111.663 154.158 114.843 152.999 117.709 151.372L112.773 142.676ZM106.115 145.114C103.656 145.649 100.24 145.96 95.7533 145.96V155.96C100.61 155.96 104.811 155.631 108.239 154.886L106.115 145.114ZM95.7533 145.96C91.3187 145.96 87.5029 145.149 84.212 143.634L80.0305 152.718C84.8036 154.915 90.0758 155.96 95.7533 155.96V145.96ZM84.2709 143.662C81.1853 142.192 78.7196 139.929 76.8327 136.716L68.2098 141.78C71.0589 146.631 74.9932 150.32 79.9716 152.69L84.2709 143.662ZM76.8327 136.716C75.044 133.67 73.9693 129.467 73.9693 123.792H63.9693C63.9693 130.661 65.2625 136.762 68.2098 141.78L76.8327 136.716ZM73.9693 123.792C73.9693 117.897 74.9486 113.506 76.5813 110.339L67.6932 105.757C65.1019 110.782 63.9693 116.887 63.9693 123.792H73.9693ZM76.5528 110.394C78.3003 107.104 80.5829 104.83 83.3909 103.354L78.7396 94.5018C73.9956 96.9944 70.3262 100.8 67.7217 105.702L76.5528 110.394ZM83.3604 103.37C86.3795 101.81 90.0163 100.952 94.4092 100.952V90.952C88.6902 90.952 83.431 92.0778 78.7701 94.4859L83.3604 103.37ZM95.2733 103.432C92.0452 103.432 89.2323 104.773 87.157 107.194L94.7495 113.702C94.9153 113.509 95.0068 113.469 95.0117 113.467C95.0133 113.466 95.0751 113.432 95.2733 113.432V103.432ZM87.157 107.194C84.9685 109.747 84.1675 113.186 83.9479 116.555L93.9267 117.205C94.091 114.686 94.634 113.837 94.7495 113.702L87.157 107.194ZM88.9372 121.88H101.417V111.88H88.9372V121.88ZM106.417 116.88C106.417 114.752 106.077 112.662 105.257 110.716L96.0411 114.596C96.2457 115.082 96.4173 115.808 96.4173 116.88H106.417ZM105.292 110.799C104.53 108.896 103.395 107.162 101.791 105.788L95.2833 113.38C95.4714 113.541 95.744 113.856 96.0069 114.513L105.292 110.799ZM101.791 105.788C99.9096 104.175 97.6379 103.432 95.2733 103.432V113.432C95.343 113.432 95.3825 113.437 95.3969 113.44C95.4106 113.442 95.4048 113.442 95.3852 113.435C95.3651 113.428 95.3415 113.417 95.3186 113.404C95.3078 113.398 95.299 113.392 95.2926 113.387C95.2862 113.383 95.2831 113.38 95.2833 113.38L101.791 105.788ZM161.679 96.144L161.095 101.11L161.111 101.112L161.127 101.113L161.679 96.144ZM164.079 96.528L169.051 97.0529L169.492 92.8746L165.453 91.7204L164.079 96.528ZM162.255 113.808L161.274 118.711L166.652 119.786L167.227 114.333L162.255 113.808ZM159.855 113.424L159.148 118.374L159.171 118.377L159.194 118.38L159.855 113.424ZM152.751 113.616L153.672 118.53L153.819 118.503L153.964 118.467L152.751 113.616ZM149.679 114.96L146.846 110.84L146.784 110.883L146.722 110.928L149.679 114.96ZM147.183 118.128L142.711 115.892L142.669 115.975L142.631 116.059L147.183 118.128ZM146.223 150V155H151.223V150H146.223ZM126.831 150H121.831V155H126.831V150ZM126.831 96.912V91.912H121.831V96.912H126.831ZM141.135 96.912L145.834 95.2033L144.637 91.912H141.135V96.912ZM144.207 105.36L139.508 107.069L140.705 110.36H144.207V105.36ZM145.167 105.36V110.36H148.207L149.606 107.662L145.167 105.36ZM148.623 100.656L152.159 104.192L152.198 104.152L152.236 104.112L148.623 100.656ZM153.231 97.2L151.062 92.695L151.028 92.7112L150.995 92.7279L153.231 97.2ZM158.415 100.952C159.306 100.952 160.199 101.004 161.095 101.11L162.263 91.1782C160.983 91.0276 159.7 90.952 158.415 90.952V100.952ZM161.127 101.113C161.654 101.172 162.058 101.226 162.353 101.273C162.677 101.325 162.763 101.352 162.705 101.336L165.453 91.7204C164.555 91.4638 163.372 91.3014 162.231 91.1746L161.127 101.113ZM159.107 96.0031L157.283 113.283L167.227 114.333L169.051 97.0529L159.107 96.0031ZM163.236 108.905C162.452 108.748 161.537 108.604 160.516 108.468L159.194 118.38C160.093 118.5 160.778 118.612 161.274 118.711L163.236 108.905ZM160.562 108.474C159.281 108.291 157.464 108.232 155.343 108.232V118.232C157.446 118.232 158.637 118.301 159.148 118.374L160.562 108.474ZM155.343 108.232C154.082 108.232 152.783 108.454 151.538 108.765L153.964 118.467C154.767 118.266 155.196 118.232 155.343 118.232V108.232ZM151.83 108.702C150.001 109.044 148.336 109.816 146.846 110.84L152.512 119.08C153.07 118.696 153.453 118.572 153.672 118.53L151.83 108.702ZM146.722 110.928C144.949 112.228 143.66 113.993 142.711 115.892L151.655 120.364C152.114 119.447 152.489 119.1 152.636 118.992L146.722 110.928ZM142.631 116.059C141.575 118.382 141.223 121.107 141.223 123.888H151.223C151.223 121.805 151.511 120.689 151.735 120.197L142.631 116.059ZM141.223 123.888V150H151.223V123.888H141.223ZM146.223 145H126.831V155H146.223V145ZM131.831 150V96.912H121.831V150H131.831ZM126.831 101.912H141.135V91.912H126.831V101.912ZM136.436 98.6207L139.508 107.069L148.906 103.651L145.834 95.2033L136.436 98.6207ZM144.207 110.36H145.167V100.36H144.207V110.36ZM149.606 107.662C150.26 106.399 151.105 105.245 152.159 104.192L145.087 97.1205C143.325 98.8826 141.866 100.865 140.728 103.058L149.606 107.662ZM152.236 104.112C153.285 103.016 154.364 102.224 155.467 101.672L150.995 92.7279C148.77 93.8401 146.777 95.3519 145.01 97.1999L152.236 104.112ZM155.4 101.705C156.527 101.163 157.517 100.952 158.415 100.952V90.952C155.857 90.952 153.391 91.5733 151.062 92.695L155.4 101.705ZM214.735 135.12L209.991 133.539L214.735 135.12ZM209.647 143.856L206.014 140.42L206.012 140.423L209.647 143.856ZM201.583 149.136L199.807 144.462L199.791 144.468L199.775 144.474L201.583 149.136ZM180.655 149.136L182.462 144.474L180.655 149.136ZM172.591 143.856L168.958 147.292L168.982 147.317L169.006 147.341L172.591 143.856ZM167.311 135.12L162.594 136.78L162.608 136.818L162.622 136.857L167.311 135.12ZM168.559 108.432L173.017 110.696L173.024 110.682L173.031 110.668L168.559 108.432ZM177.391 99.12L175.012 94.7223L174.996 94.7305L174.981 94.7389L177.391 99.12ZM204.175 99.12L201.734 103.484L201.75 103.492L201.765 103.501L204.175 99.12ZM213.199 108.432L208.783 110.778L208.791 110.792L208.799 110.807L213.199 108.432ZM185.743 130.992L180.823 131.886L185.743 130.992ZM187.663 135.792L183.803 138.971L183.851 139.028L183.9 139.085L187.663 135.792ZM194.479 135.792L190.507 132.755L190.493 132.773L190.479 132.792L194.479 135.792ZM196.207 130.992L191.287 130.098L191.274 130.17L191.263 130.243L196.207 130.992ZM196.207 115.728L191.267 116.5L191.278 116.575L191.292 116.649L196.207 115.728ZM194.383 111.12L190.502 114.273L190.56 114.344L190.62 114.413L194.383 111.12ZM186.511 113.04L181.851 111.228L186.511 113.04ZM211.463 123.312C211.463 127.301 210.942 130.688 209.991 133.539L219.478 136.701C220.832 132.64 221.463 128.155 221.463 123.312H211.463ZM209.991 133.539C209.043 136.385 207.697 138.641 206.014 140.42L213.279 147.292C216.076 144.335 218.123 140.767 219.478 136.701L209.991 133.539ZM206.012 140.423C204.394 142.135 202.359 143.492 199.807 144.462L203.359 153.81C207.207 152.348 210.547 150.185 213.282 147.289L206.012 140.423ZM199.775 144.474C197.309 145.43 194.385 145.96 190.927 145.96V155.96C195.404 155.96 199.584 155.274 203.39 153.798L199.775 144.474ZM190.927 145.96C187.769 145.96 184.965 145.445 182.462 144.474L178.847 153.798C182.616 155.259 186.661 155.96 190.927 155.96V145.96ZM182.462 144.474C179.964 143.506 177.891 142.135 176.176 140.371L169.006 147.341C171.77 150.185 175.073 152.334 178.847 153.798L182.462 144.474ZM176.223 140.42C174.503 138.602 173.076 136.29 171.999 133.383L162.622 136.857C164.106 140.862 166.199 144.374 168.958 147.292L176.223 140.42ZM172.027 133.46C171.033 130.634 170.487 127.275 170.487 123.312H160.487C160.487 128.181 161.157 132.694 162.594 136.78L172.027 133.46ZM170.487 123.312C170.487 117.982 171.416 113.847 173.017 110.696L164.101 106.168C161.605 111.081 160.487 116.866 160.487 123.312H170.487ZM173.031 110.668C174.647 107.437 176.891 105.101 179.8 103.501L174.981 94.7389C170.21 97.3628 166.567 101.235 164.087 106.196L173.031 110.668ZM179.77 103.518C182.812 101.872 186.571 100.952 191.215 100.952V90.952C185.235 90.952 179.777 92.1441 175.012 94.7223L179.77 103.518ZM191.215 100.952C195.332 100.952 198.793 101.839 201.734 103.484L206.616 94.7562C202.005 92.1773 196.825 90.952 191.215 90.952V100.952ZM201.765 103.501C204.702 105.116 207.036 107.488 208.783 110.778L217.614 106.086C215.01 101.184 211.328 97.3477 206.584 94.7389L201.765 103.501ZM208.799 110.807C210.484 113.93 211.463 118.023 211.463 123.312H221.463C221.463 116.825 220.265 110.998 217.599 106.057L208.799 110.807ZM180.167 123.312C180.167 126.511 180.369 129.388 180.823 131.886L190.662 130.098C190.348 128.372 190.167 126.129 190.167 123.312H180.167ZM180.823 131.886C181.287 134.435 182.153 136.967 183.803 138.971L191.522 132.613C191.38 132.441 190.967 131.773 190.662 130.098L180.823 131.886ZM183.9 139.085C185.782 141.236 188.326 142.328 191.119 142.328V132.328C191.07 132.328 191.064 132.324 191.091 132.329C191.12 132.335 191.169 132.348 191.229 132.375C191.29 132.402 191.343 132.434 191.383 132.464C191.422 132.493 191.435 132.51 191.426 132.499L183.9 139.085ZM191.119 142.328C193.896 142.328 196.616 141.276 198.479 138.792L190.479 132.792C190.519 132.739 190.585 132.664 190.681 132.585C190.778 132.507 190.883 132.443 190.984 132.397C191.191 132.302 191.275 132.328 191.119 132.328V142.328ZM198.451 138.829C200.003 136.8 200.768 134.263 201.15 131.741L191.263 130.243C191.005 131.945 190.619 132.608 190.507 132.755L198.451 138.829ZM201.126 131.886C201.58 129.388 201.783 126.511 201.783 123.312H191.783C191.783 126.129 191.601 128.372 191.287 130.098L201.126 131.886ZM201.783 123.312C201.783 120.118 201.581 117.259 201.121 114.807L191.292 116.649C191.6 118.293 191.783 120.49 191.783 123.312H201.783ZM201.147 114.956C200.752 112.427 199.91 109.844 198.146 107.827L190.62 114.413C190.647 114.444 191.022 114.933 191.267 116.5L201.147 114.956ZM198.263 107.967C196.411 105.687 193.82 104.584 191.023 104.584V114.584C191.112 114.584 191.02 114.598 190.84 114.515C190.756 114.477 190.678 114.429 190.613 114.377C190.549 114.327 190.513 114.286 190.502 114.273L198.263 107.967ZM191.023 104.584C189.001 104.584 186.995 105.158 185.27 106.479C183.601 107.757 182.532 109.477 181.851 111.228L191.171 114.852C191.386 114.299 191.517 114.291 191.351 114.417C191.314 114.446 191.268 114.476 191.216 114.503C191.164 114.53 191.114 114.55 191.071 114.564C190.98 114.593 190.952 114.584 191.023 114.584V104.584ZM181.851 111.228C180.614 114.408 180.167 118.579 180.167 123.312H190.167C190.167 118.957 190.615 116.28 191.171 114.852L181.851 111.228Z" fill="white" mask="url(#path-1-outside-1_54975_29356)"/>
</svg>
